<mxfile host="Electron" agent="Mozilla/5.0 (Windows NT 10.0; Win64; x64) AppleWebKit/537.36 (KHTML, like Gecko) draw.io/24.7.8 Chrome/128.0.6613.36 Electron/32.0.1 Safari/537.36" version="24.7.8">
  <diagram name="Page-1" id="2NcOwV-inpW2LlGDStCx">
    <mxGraphModel dx="794" dy="557" grid="0" gridSize="10" guides="1" tooltips="1" connect="1" arrows="1" fold="1" page="1" pageScale="1" pageWidth="850" pageHeight="1100" math="0" shadow="0">
      <root>
        <mxCell id="0" />
        <mxCell id="1" parent="0" />
        <mxCell id="4M5yLvEmZj7ivHAikWpH-1" style="edgeStyle=orthogonalEdgeStyle;rounded=0;orthogonalLoop=1;jettySize=auto;html=1;entryX=0.5;entryY=0;entryDx=0;entryDy=0;" parent="1" source="4M5yLvEmZj7ivHAikWpH-2" target="4M5yLvEmZj7ivHAikWpH-3" edge="1">
          <mxGeometry relative="1" as="geometry" />
        </mxCell>
        <mxCell id="Zb296tGz1tGCdxtolMrk-4" value="30% Mail Truck&lt;div&gt;25% Lawn Mower&lt;/div&gt;&lt;div&gt;26.3% either&lt;/div&gt;&lt;div&gt;47.5% Both&lt;/div&gt;" style="edgeLabel;html=1;align=center;verticalAlign=middle;resizable=0;points=[];" vertex="1" connectable="0" parent="4M5yLvEmZj7ivHAikWpH-1">
          <mxGeometry x="0.4857" y="3" relative="1" as="geometry">
            <mxPoint x="47" y="-22" as="offset" />
          </mxGeometry>
        </mxCell>
        <mxCell id="4M5yLvEmZj7ivHAikWpH-2" value="Luna Barking" style="ellipse;whiteSpace=wrap;html=1;" parent="1" vertex="1">
          <mxGeometry x="150" y="250" width="120" height="80" as="geometry" />
        </mxCell>
        <mxCell id="4M5yLvEmZj7ivHAikWpH-3" value="Marco Perturbed&lt;br&gt;35% of the time Luna Barks" style="ellipse;whiteSpace=wrap;html=1;" parent="1" vertex="1">
          <mxGeometry x="150" y="400" width="120" height="80" as="geometry" />
        </mxCell>
        <mxCell id="4M5yLvEmZj7ivHAikWpH-4" style="edgeStyle=orthogonalEdgeStyle;rounded=0;orthogonalLoop=1;jettySize=auto;html=1;entryX=1;entryY=0;entryDx=0;entryDy=0;startArrow=none;startFill=0;" parent="1" source="4M5yLvEmZj7ivHAikWpH-5" target="4M5yLvEmZj7ivHAikWpH-2" edge="1">
          <mxGeometry relative="1" as="geometry" />
        </mxCell>
        <mxCell id="Zb296tGz1tGCdxtolMrk-3" value="15%" style="edgeLabel;html=1;align=center;verticalAlign=middle;resizable=0;points=[];" vertex="1" connectable="0" parent="4M5yLvEmZj7ivHAikWpH-4">
          <mxGeometry x="-0.072" y="1" relative="1" as="geometry">
            <mxPoint as="offset" />
          </mxGeometry>
        </mxCell>
        <mxCell id="4M5yLvEmZj7ivHAikWpH-5" value="Lawn Mower" style="ellipse;whiteSpace=wrap;html=1;" parent="1" vertex="1">
          <mxGeometry x="260" y="120" width="120" height="80" as="geometry" />
        </mxCell>
        <mxCell id="4M5yLvEmZj7ivHAikWpH-6" style="edgeStyle=orthogonalEdgeStyle;rounded=0;orthogonalLoop=1;jettySize=auto;html=1;entryX=0;entryY=0;entryDx=0;entryDy=0;startArrow=none;startFill=0;" parent="1" source="4M5yLvEmZj7ivHAikWpH-8" target="4M5yLvEmZj7ivHAikWpH-2" edge="1">
          <mxGeometry relative="1" as="geometry" />
        </mxCell>
        <mxCell id="Zb296tGz1tGCdxtolMrk-2" value="75%" style="edgeLabel;html=1;align=center;verticalAlign=middle;resizable=0;points=[];" vertex="1" connectable="0" parent="4M5yLvEmZj7ivHAikWpH-6">
          <mxGeometry x="-0.0566" y="-2" relative="1" as="geometry">
            <mxPoint as="offset" />
          </mxGeometry>
        </mxCell>
        <mxCell id="4M5yLvEmZj7ivHAikWpH-8" value="Mail Truck" style="ellipse;whiteSpace=wrap;html=1;" parent="1" vertex="1">
          <mxGeometry x="40" y="120" width="120" height="80" as="geometry" />
        </mxCell>
      </root>
    </mxGraphModel>
  </diagram>
</mxfile>
